<?xml version="1.0" encoding="UTF-8" standalone="no"?>
<!DOCTYPE svg PUBLIC "-//W3C//DTD SVG 1.1//EN"
 "http://www.w3.org/Graphics/SVG/1.1/DTD/svg11.dtd">
<!-- Generated by graphviz version 2.48.0 (20210717.1556)
 -->
<!-- Pages: 1 -->
<svg width="1693pt" height="176pt"
 viewBox="0.00 0.00 1693.03 175.98" xmlns="http://www.w3.org/2000/svg" xmlns:xlink="http://www.w3.org/1999/xlink">
<g id="graph0" class="graph" transform="scale(1 1) rotate(0) translate(4 171.98)">
<polygon fill="white" stroke="transparent" points="-4,4 -4,-171.98 1689.03,-171.98 1689.03,4 -4,4"/>
<text text-anchor="middle" x="842.51" y="-10" font-family="Times New Roman,serif" font-size="20.00">DIAGRAMA DE ESTADOS</text>
<!-- ini -->
<g id="node1" class="node">
<title>ini</title>
<ellipse fill="black" stroke="black" cx="1.8" cy="-113.11" rx="1.8" ry="1.8"/>
</g>
<!-- 0000
0.0V -->
<g id="node2" class="node">
<title>0000
0.0V</title>
<ellipse fill="none" stroke="black" cx="70.71" cy="-113.11" rx="31.23" ry="26.74"/>
<text text-anchor="middle" x="70.71" y="-116.91" font-family="Times New Roman,serif" font-size="14.00">0000</text>
<text text-anchor="middle" x="70.71" y="-101.91" font-family="Times New Roman,serif" font-size="14.00">0.0V</text>
</g>
<!-- ini&#45;&gt;0000
0.0V -->
<g id="edge1" class="edge">
<title>ini&#45;&gt;0000
0.0V</title>
<path fill="none" stroke="black" d="M3.96,-113.11C7.34,-113.11 17.68,-113.11 29.18,-113.11"/>
<polygon fill="black" stroke="black" points="29.45,-116.61 39.45,-113.11 29.45,-109.61 29.45,-116.61"/>
</g>
<!-- 0001
0.21V -->
<g id="node3" class="node">
<title>0001
0.21V</title>
<ellipse fill="none" stroke="black" cx="173.18" cy="-141.11" rx="35.21" ry="26.74"/>
<text text-anchor="middle" x="173.18" y="-144.91" font-family="Times New Roman,serif" font-size="14.00">0001</text>
<text text-anchor="middle" x="173.18" y="-129.91" font-family="Times New Roman,serif" font-size="14.00">0.21V</text>
</g>
<!-- 0000
0.0V&#45;&gt;0001
0.21V -->
<g id="edge2" class="edge">
<title>0000
0.0V&#45;&gt;0001
0.21V</title>
<path fill="none" stroke="black" d="M100.5,-121.14C109.72,-123.71 120.13,-126.61 130.09,-129.38"/>
<polygon fill="black" stroke="black" points="129.28,-132.79 139.85,-132.1 131.16,-126.05 129.28,-132.79"/>
</g>
<!-- 0010
0.77V -->
<g id="node4" class="node">
<title>0010
0.77V</title>
<ellipse fill="none" stroke="black" cx="279.89" cy="-141.11" rx="35.21" ry="26.74"/>
<text text-anchor="middle" x="279.89" y="-144.91" font-family="Times New Roman,serif" font-size="14.00">0010</text>
<text text-anchor="middle" x="279.89" y="-129.91" font-family="Times New Roman,serif" font-size="14.00">0.77V</text>
</g>
<!-- 0001
0.21V&#45;&gt;0010
0.77V -->
<g id="edge3" class="edge">
<title>0001
0.21V&#45;&gt;0010
0.77V</title>
<path fill="none" stroke="black" d="M208.76,-141.11C216.89,-141.11 225.67,-141.11 234.17,-141.11"/>
<polygon fill="black" stroke="black" points="234.35,-144.61 244.35,-141.11 234.35,-137.61 234.35,-144.61"/>
</g>
<!-- 0011
1.54V -->
<g id="node5" class="node">
<title>0011
1.54V</title>
<ellipse fill="none" stroke="black" cx="386.6" cy="-141.11" rx="35.21" ry="26.74"/>
<text text-anchor="middle" x="386.6" y="-144.91" font-family="Times New Roman,serif" font-size="14.00">0011</text>
<text text-anchor="middle" x="386.6" y="-129.91" font-family="Times New Roman,serif" font-size="14.00">1.54V</text>
</g>
<!-- 0010
0.77V&#45;&gt;0011
1.54V -->
<g id="edge4" class="edge">
<title>0010
0.77V&#45;&gt;0011
1.54V</title>
<path fill="none" stroke="black" d="M315.47,-141.11C323.6,-141.11 332.38,-141.11 340.89,-141.11"/>
<polygon fill="black" stroke="black" points="341.06,-144.61 351.06,-141.11 341.06,-137.61 341.06,-144.61"/>
</g>
<!-- 0100
2.5V -->
<g id="node6" class="node">
<title>0100
2.5V</title>
<ellipse fill="none" stroke="black" cx="489.07" cy="-141.11" rx="31.23" ry="26.74"/>
<text text-anchor="middle" x="489.07" y="-144.91" font-family="Times New Roman,serif" font-size="14.00">0100</text>
<text text-anchor="middle" x="489.07" y="-129.91" font-family="Times New Roman,serif" font-size="14.00">2.5V</text>
</g>
<!-- 0011
1.54V&#45;&gt;0100
2.5V -->
<g id="edge5" class="edge">
<title>0011
1.54V&#45;&gt;0100
2.5V</title>
<path fill="none" stroke="black" d="M422.18,-141.11C430.41,-141.11 439.27,-141.11 447.73,-141.11"/>
<polygon fill="black" stroke="black" points="447.79,-144.61 457.79,-141.11 447.79,-137.61 447.79,-144.61"/>
</g>
<!-- 0101
3.47V -->
<g id="node7" class="node">
<title>0101
3.47V</title>
<ellipse fill="none" stroke="black" cx="591.54" cy="-141.11" rx="35.21" ry="26.74"/>
<text text-anchor="middle" x="591.54" y="-144.91" font-family="Times New Roman,serif" font-size="14.00">0101</text>
<text text-anchor="middle" x="591.54" y="-129.91" font-family="Times New Roman,serif" font-size="14.00">3.47V</text>
</g>
<!-- 0100
2.5V&#45;&gt;0101
3.47V -->
<g id="edge6" class="edge">
<title>0100
2.5V&#45;&gt;0101
3.47V</title>
<path fill="none" stroke="black" d="M520.21,-141.11C528.27,-141.11 537.16,-141.11 545.82,-141.11"/>
<polygon fill="black" stroke="black" points="545.83,-144.61 555.83,-141.11 545.83,-137.61 545.83,-144.61"/>
</g>
<!-- 0110
4.24V -->
<g id="node8" class="node">
<title>0110
4.24V</title>
<ellipse fill="none" stroke="black" cx="698.25" cy="-141.11" rx="35.21" ry="26.74"/>
<text text-anchor="middle" x="698.25" y="-144.91" font-family="Times New Roman,serif" font-size="14.00">0110</text>
<text text-anchor="middle" x="698.25" y="-129.91" font-family="Times New Roman,serif" font-size="14.00">4.24V</text>
</g>
<!-- 0101
3.47V&#45;&gt;0110
4.24V -->
<g id="edge7" class="edge">
<title>0101
3.47V&#45;&gt;0110
4.24V</title>
<path fill="none" stroke="black" d="M627.11,-141.11C635.25,-141.11 644.03,-141.11 652.53,-141.11"/>
<polygon fill="black" stroke="black" points="652.71,-144.61 662.71,-141.11 652.71,-137.61 652.71,-144.61"/>
</g>
<!-- 0111
4.79V -->
<g id="node9" class="node">
<title>0111
4.79V</title>
<ellipse fill="none" stroke="black" cx="804.96" cy="-141.11" rx="35.21" ry="26.74"/>
<text text-anchor="middle" x="804.96" y="-144.91" font-family="Times New Roman,serif" font-size="14.00">0111</text>
<text text-anchor="middle" x="804.96" y="-129.91" font-family="Times New Roman,serif" font-size="14.00">4.79V</text>
</g>
<!-- 0110
4.24V&#45;&gt;0111
4.79V -->
<g id="edge8" class="edge">
<title>0110
4.24V&#45;&gt;0111
4.79V</title>
<path fill="none" stroke="black" d="M733.83,-141.11C741.96,-141.11 750.74,-141.11 759.24,-141.11"/>
<polygon fill="black" stroke="black" points="759.42,-144.61 769.42,-141.11 759.42,-137.61 759.42,-144.61"/>
</g>
<!-- 1000
4.99V -->
<g id="node10" class="node">
<title>1000
4.99V</title>
<ellipse fill="none" stroke="black" cx="911.67" cy="-141.11" rx="35.21" ry="26.74"/>
<text text-anchor="middle" x="911.67" y="-144.91" font-family="Times New Roman,serif" font-size="14.00">1000</text>
<text text-anchor="middle" x="911.67" y="-129.91" font-family="Times New Roman,serif" font-size="14.00">4.99V</text>
</g>
<!-- 0111
4.79V&#45;&gt;1000
4.99V -->
<g id="edge9" class="edge">
<title>0111
4.79V&#45;&gt;1000
4.99V</title>
<path fill="none" stroke="black" d="M840.54,-141.11C848.67,-141.11 857.45,-141.11 865.95,-141.11"/>
<polygon fill="black" stroke="black" points="866.13,-144.61 876.13,-141.11 866.13,-137.61 866.13,-144.61"/>
</g>
<!-- 1001
4.79V -->
<g id="node11" class="node">
<title>1001
4.79V</title>
<ellipse fill="none" stroke="black" cx="1018.38" cy="-141.11" rx="35.21" ry="26.74"/>
<text text-anchor="middle" x="1018.38" y="-144.91" font-family="Times New Roman,serif" font-size="14.00">1001</text>
<text text-anchor="middle" x="1018.38" y="-129.91" font-family="Times New Roman,serif" font-size="14.00">4.79V</text>
</g>
<!-- 1000
4.99V&#45;&gt;1001
4.79V -->
<g id="edge10" class="edge">
<title>1000
4.99V&#45;&gt;1001
4.79V</title>
<path fill="none" stroke="black" d="M947.25,-141.11C955.38,-141.11 964.16,-141.11 972.66,-141.11"/>
<polygon fill="black" stroke="black" points="972.84,-144.61 982.84,-141.11 972.84,-137.61 972.84,-144.61"/>
</g>
<!-- 1010
4.22V -->
<g id="node12" class="node">
<title>1010
4.22V</title>
<ellipse fill="none" stroke="black" cx="1125.09" cy="-141.11" rx="35.21" ry="26.74"/>
<text text-anchor="middle" x="1125.09" y="-144.91" font-family="Times New Roman,serif" font-size="14.00">1010</text>
<text text-anchor="middle" x="1125.09" y="-129.91" font-family="Times New Roman,serif" font-size="14.00">4.22V</text>
</g>
<!-- 1001
4.79V&#45;&gt;1010
4.22V -->
<g id="edge11" class="edge">
<title>1001
4.79V&#45;&gt;1010
4.22V</title>
<path fill="none" stroke="black" d="M1053.96,-141.11C1062.09,-141.11 1070.87,-141.11 1079.37,-141.11"/>
<polygon fill="black" stroke="black" points="1079.55,-144.61 1089.55,-141.11 1079.55,-137.61 1079.55,-144.61"/>
</g>
<!-- 1011
3.46V -->
<g id="node13" class="node">
<title>1011
3.46V</title>
<ellipse fill="none" stroke="black" cx="1231.8" cy="-141.11" rx="35.21" ry="26.74"/>
<text text-anchor="middle" x="1231.8" y="-144.91" font-family="Times New Roman,serif" font-size="14.00">1011</text>
<text text-anchor="middle" x="1231.8" y="-129.91" font-family="Times New Roman,serif" font-size="14.00">3.46V</text>
</g>
<!-- 1010
4.22V&#45;&gt;1011
3.46V -->
<g id="edge12" class="edge">
<title>1010
4.22V&#45;&gt;1011
3.46V</title>
<path fill="none" stroke="black" d="M1160.67,-141.11C1168.8,-141.11 1177.58,-141.11 1186.09,-141.11"/>
<polygon fill="black" stroke="black" points="1186.26,-144.61 1196.26,-141.11 1186.26,-137.61 1186.26,-144.61"/>
</g>
<!-- 1100
2.5V -->
<g id="node14" class="node">
<title>1100
2.5V</title>
<ellipse fill="none" stroke="black" cx="1334.27" cy="-141.11" rx="31.23" ry="26.74"/>
<text text-anchor="middle" x="1334.27" y="-144.91" font-family="Times New Roman,serif" font-size="14.00">1100</text>
<text text-anchor="middle" x="1334.27" y="-129.91" font-family="Times New Roman,serif" font-size="14.00">2.5V</text>
</g>
<!-- 1011
3.46V&#45;&gt;1100
2.5V -->
<g id="edge13" class="edge">
<title>1011
3.46V&#45;&gt;1100
2.5V</title>
<path fill="none" stroke="black" d="M1267.38,-141.11C1275.61,-141.11 1284.47,-141.11 1292.93,-141.11"/>
<polygon fill="black" stroke="black" points="1292.99,-144.61 1302.99,-141.11 1292.99,-137.61 1292.99,-144.61"/>
</g>
<!-- 1101
1.53V -->
<g id="node15" class="node">
<title>1101
1.53V</title>
<ellipse fill="none" stroke="black" cx="1436.74" cy="-141.11" rx="35.21" ry="26.74"/>
<text text-anchor="middle" x="1436.74" y="-144.91" font-family="Times New Roman,serif" font-size="14.00">1101</text>
<text text-anchor="middle" x="1436.74" y="-129.91" font-family="Times New Roman,serif" font-size="14.00">1.53V</text>
</g>
<!-- 1100
2.5V&#45;&gt;1101
1.53V -->
<g id="edge14" class="edge">
<title>1100
2.5V&#45;&gt;1101
1.53V</title>
<path fill="none" stroke="black" d="M1365.41,-141.11C1373.47,-141.11 1382.36,-141.11 1391.02,-141.11"/>
<polygon fill="black" stroke="black" points="1391.03,-144.61 1401.03,-141.11 1391.03,-137.61 1391.03,-144.61"/>
</g>
<!-- 1110
0.77V -->
<g id="node16" class="node">
<title>1110
0.77V</title>
<ellipse fill="none" stroke="black" cx="1543.45" cy="-141.11" rx="35.21" ry="26.74"/>
<text text-anchor="middle" x="1543.45" y="-144.91" font-family="Times New Roman,serif" font-size="14.00">1110</text>
<text text-anchor="middle" x="1543.45" y="-129.91" font-family="Times New Roman,serif" font-size="14.00">0.77V</text>
</g>
<!-- 1101
1.53V&#45;&gt;1110
0.77V -->
<g id="edge15" class="edge">
<title>1101
1.53V&#45;&gt;1110
0.77V</title>
<path fill="none" stroke="black" d="M1472.31,-141.11C1480.45,-141.11 1489.23,-141.11 1497.73,-141.11"/>
<polygon fill="black" stroke="black" points="1497.91,-144.61 1507.91,-141.11 1497.91,-137.61 1497.91,-144.61"/>
</g>
<!-- 1111
0.2V -->
<g id="node17" class="node">
<title>1111
0.2V</title>
<ellipse fill="none" stroke="black" cx="1649.92" cy="-113.11" rx="31.21" ry="31.21"/>
<ellipse fill="none" stroke="black" cx="1649.92" cy="-113.11" rx="35.23" ry="35.23"/>
<text text-anchor="middle" x="1649.92" y="-116.91" font-family="Times New Roman,serif" font-size="14.00">1111</text>
<text text-anchor="middle" x="1649.92" y="-101.91" font-family="Times New Roman,serif" font-size="14.00">0.2V</text>
</g>
<!-- 1110
0.77V&#45;&gt;1111
0.2V -->
<g id="edge16" class="edge">
<title>1110
0.77V&#45;&gt;1111
0.2V</title>
<path fill="none" stroke="black" d="M1576.93,-132.41C1586.09,-129.95 1596.2,-127.24 1605.87,-124.65"/>
<polygon fill="black" stroke="black" points="1606.98,-127.98 1615.73,-122.01 1605.17,-121.21 1606.98,-127.98"/>
</g>
<!-- 1111
0.2V&#45;&gt;0000
0.0V -->
<g id="edge17" class="edge">
<title>1111
0.2V&#45;&gt;0000
0.0V</title>
<path fill="none" stroke="black" d="M1615.44,-106.16C1573.93,-98.16 1500.94,-86.11 1437.74,-86.11 278.89,-86.11 278.89,-86.11 278.89,-86.11 220.04,-86.11 152.57,-96.96 111.04,-104.9"/>
<polygon fill="black" stroke="black" points="110.2,-101.5 101.06,-106.85 111.55,-108.37 110.2,-101.5"/>
</g>
</g>
</svg>
